<?xml version="1.0" encoding="utf-8"?>
<!-- Generator: Adobe Illustrator 24.0.1, SVG Export Plug-In . SVG Version: 6.00 Build 0)  -->
<svg version="1.2" baseProfile="tiny" xmlns="http://www.w3.org/2000/svg" xmlns:xlink="http://www.w3.org/1999/xlink" x="0px"
	 y="0px" viewBox="0 0 30 26" xml:space="preserve">
<g id="Capa_5">
</g>
<g id="guides">
</g>
<g id="Capa_8">
	<circle fill="#F15A24" cx="15" cy="13" r="12"/>
</g>
<g id="Capa_8_copia" display="none">
	<circle display="inline" fill="#163440" cx="15" cy="13" r="12"/>
</g>
<g id="Capa_2" display="none">
	
		<text transform="matrix(2.846 0 0 1 2.1151 23.6367)" display="inline" fill="#F15A24" font-family="'Montserrat-Bold'" font-size="11.2px">H</text>
</g>
<g id="Capa_7" display="none">
	<path display="inline" fill="#F15A24" d="M15.1,29.5c-1.3,0-2.5-1.1-2.5-2.4c0-0.6,0.2-1.3,0.7-1.8c0.5-0.5,1.1-0.8,1.8-0.8
		c0.7,0,1.3,0.3,1.8,0.8c0.5,0.5,0.7,1.1,0.7,1.8C17.5,28.4,16.4,29.5,15.1,29.5z M15.1,29.5c0.6,0,1.3-0.3,1.7-0.7
		c0.4-0.5,0.7-1.1,0.7-1.7c0-1.3-1.1-2.3-2.3-2.3c-1.2,0-2.3,1-2.3,2.3c0,0.6,0.2,1.2,0.7,1.7C13.8,29.2,14.4,29.5,15.1,29.5z"/>
</g>
<g id="Capa_3" display="none">
	<path display="inline" fill="#F15A24" d="M16.7,6.9c-0.8,1.4-1.7,2.7-2.8,3.9c-1.1,1.2-2.4,2.2-3.8,3c-1.5,0.7-3.2,1.1-4.8,0.9
		c-1.6-0.1-3.2-0.6-4.6-1.5c1.5,0.4,3.1,0.7,4.6,0.6c1.5,0,3-0.3,4.3-1c1.4-0.7,2.6-1.6,3.7-2.6C14.6,9.2,15.6,8,16.7,6.9z"/>
	<path display="inline" fill="#F15A24" d="M13.2,6.9c1.1,1.1,2.1,2.3,3.3,3.4c1.1,1,2.3,2,3.7,2.6c1.3,0.7,2.8,1,4.3,1
		c1.5,0,3-0.2,4.6-0.6c-1.3,0.8-2.9,1.4-4.5,1.5c-0.8,0-1.6,0-2.4-0.1c-0.8-0.2-1.6-0.4-2.3-0.8c-1.5-0.7-2.7-1.8-3.8-3
		C14.8,9.6,14,8.2,13.2,6.9z"/>
</g>
<g id="Capa_4" display="none">
	<polygon display="inline" fill="#F15A24" points="4.7,7.9 8.3,11.2 4.1,8.7 	"/>
	<polygon display="inline" fill="#F15A24" points="26.2,8.8 22,11.3 25.6,8 	"/>
</g>
<g id="Capa_6" display="none">
	<path display="inline" fill="#F15A24" d="M16.5,5.4c0,0.8-0.7,1.5-1.5,1.5c-0.8,0-1.6-0.7-1.5-1.5c0-0.4,0.1-0.8,0.4-1.1
		C14.2,4,14.6,3.9,15,3.9C15.9,3.9,16.5,4.7,16.5,5.4z M16.4,5.4c0-0.8-0.7-1.4-1.4-1.3c-0.7,0-1.3,0.6-1.3,1.3
		c0,0.7,0.6,1.4,1.3,1.4C15.7,6.9,16.4,6.2,16.4,5.4z"/>
</g>
<g id="Capa_8_copia_2">
	<circle fill="#163440" cx="15" cy="13" r="12"/>
</g>
<g id="Capa_2_copia">
	<text transform="matrix(3.652 0 0 1 4.8228 19.1709)" fill="#FAF2DB" font-family="'Montserrat-Bold'" font-size="6.8752px">H</text>
</g>
<g id="Capa_3_copia">
	<path fill="#FAF2DB" d="M16.3,7.4c-1.2,2.2-2.8,4.4-5.1,5.6c-1.2,0.6-2.6,0.9-3.9,0.8c-1.3-0.1-2.6-0.6-3.6-1.3
		C5,12.9,6.2,13,7.4,13c1.2,0,2.3-0.3,3.4-0.8C12.9,11.1,14.6,9.2,16.3,7.4z"/>
	<path fill="#FAF2DB" d="M13.5,7.4c0.9,0.9,1.7,1.9,2.6,2.7c0.9,0.8,1.8,1.6,2.9,2.2c1,0.6,2.2,0.8,3.4,0.8c1.2,0,2.4-0.1,3.6-0.5
		c-1,0.7-2.3,1.2-3.6,1.3c-1.3,0.1-2.7-0.1-3.9-0.8c-1.2-0.6-2.1-1.5-3-2.5C14.8,9.6,14.1,8.5,13.5,7.4z"/>
</g>
<g id="Capa_4_copia">
	<polygon fill="#FAF2DB" points="6.9,8.2 9.7,10.9 6.3,9 	"/>
	<polygon fill="#FAF2DB" points="23.9,9 20.5,11 23.2,8.2 	"/>
</g>
<g id="Capa_6_copia" display="none">
	<path display="inline" fill="#FAF2DB" d="M16.1,5.2c0,0.6-0.5,1.2-1.2,1.3c-0.7,0-1.2-0.6-1.2-1.3c0-0.7,0.5-1.3,1.2-1.3
		C15.7,3.9,16.2,4.6,16.1,5.2z M16.1,5.2c0-0.6-0.6-1.1-1.1-1.1c-0.6,0-1,0.5-1,1.1c0,0.6,0.4,1.1,1,1.1C15.6,6.4,16.1,5.8,16.1,5.2
		z"/>
</g>
</svg>
