<svg id="Capa_1" data-name="Capa 1" xmlns="http://www.w3.org/2000/svg" viewBox="0 0 48 48"><defs><style>.cls-1{fill:#163440;}.cls-2{font-size:16.53px;font-family:Montserrat-Bold, Montserrat;font-weight:700;}.cls-2,.cls-3{fill:#faf2db;}</style></defs><title>icon</title><circle class="cls-1" cx="24" cy="24" r="24"/><text class="cls-2" transform="translate(3.6 38.4) scale(3.04 1)">H</text><path class="cls-3" d="M26.7,10a42.9,42.9,0,0,1-4.2,6.8,24.1,24.1,0,0,1-5.7,5.8,15.2,15.2,0,0,1-3.6,1.8,14.8,14.8,0,0,1-4.1.5,14.3,14.3,0,0,1-7.6-2.5,18.3,18.3,0,0,0,7.6,1.7,23.2,23.2,0,0,0,3.8-.6,12.4,12.4,0,0,0,3.4-1.8A31.5,31.5,0,0,0,22,16.4C23.7,14.4,25.1,12.2,26.7,10Z" transform="translate(0 0)"/><path class="cls-3" d="M21.1,10c1.5,2.2,2.9,4.4,4.6,6.5a28.7,28.7,0,0,0,5.6,5.4,17.4,17.4,0,0,0,3.3,1.8,15.8,15.8,0,0,0,3.8.5A18.2,18.2,0,0,0,46,22.6a14.3,14.3,0,0,1-7.6,2.5,14.8,14.8,0,0,1-4.1-.5,12.4,12.4,0,0,1-3.6-1.9,23.7,23.7,0,0,1-5.6-5.8A59,59,0,0,1,21.1,10Z" transform="translate(0 0)"/><polygon class="cls-3" points="7.6 12.5 13.3 18.6 6.9 13.2 7.6 12.5"/><polygon class="cls-3" points="41.5 13.3 35 18.7 40.8 12.6 41.5 13.3"/></svg>